<mxfile host="app.diagrams.net" modified="2024-05-14T11:43:58.874Z" agent="Mozilla/5.0 (Windows NT 10.0; Win64; x64) AppleWebKit/537.36 (KHTML, like Gecko) Chrome/123.0.0.0 Safari/537.36 OPR/109.0.0.0" etag="FA8t4NEdI2CB7HPW1rTE" version="24.0.7" type="device">
  <diagram id="C5RBs43oDa-KdzZeNtuy" name="Page-1">
    <mxGraphModel dx="1548" dy="898" grid="0" gridSize="10" guides="1" tooltips="1" connect="1" arrows="1" fold="1" page="1" pageScale="1" pageWidth="1169" pageHeight="827" background="#000000" math="0" shadow="0">
      <root>
        <mxCell id="WIyWlLk6GJQsqaUBKTNV-0" />
        <mxCell id="WIyWlLk6GJQsqaUBKTNV-1" parent="WIyWlLk6GJQsqaUBKTNV-0" />
        <mxCell id="WIyWlLk6GJQsqaUBKTNV-2" value="" style="rounded=1;html=1;jettySize=auto;orthogonalLoop=1;fontSize=11;endArrow=block;endFill=0;endSize=8;strokeWidth=1;shadow=0;labelBackgroundColor=none;edgeStyle=orthogonalEdgeStyle;strokeColor=#FFFFFF;fontColor=#FFFFFF;entryX=0.043;entryY=0.498;entryDx=0;entryDy=0;entryPerimeter=0;" parent="WIyWlLk6GJQsqaUBKTNV-1" target="WIyWlLk6GJQsqaUBKTNV-6" edge="1">
          <mxGeometry relative="1" as="geometry">
            <mxPoint x="160" y="449.0000000000002" as="sourcePoint" />
          </mxGeometry>
        </mxCell>
        <mxCell id="_2sTWK_pXGh3vERjUtaS-2" style="edgeStyle=orthogonalEdgeStyle;rounded=1;orthogonalLoop=1;jettySize=auto;html=1;exitX=1;exitY=0.5;exitDx=0;exitDy=0;entryX=0;entryY=0.5;entryDx=0;entryDy=0;strokeColor=#FFFFFF;fontColor=#FFFFFF;" parent="WIyWlLk6GJQsqaUBKTNV-1" source="WIyWlLk6GJQsqaUBKTNV-6" target="_2sTWK_pXGh3vERjUtaS-3" edge="1">
          <mxGeometry relative="1" as="geometry">
            <Array as="points">
              <mxPoint x="338" y="279" />
            </Array>
          </mxGeometry>
        </mxCell>
        <mxCell id="_2sTWK_pXGh3vERjUtaS-5" style="edgeStyle=orthogonalEdgeStyle;rounded=1;orthogonalLoop=1;jettySize=auto;html=1;entryX=0;entryY=0.5;entryDx=0;entryDy=0;exitX=1;exitY=0.5;exitDx=0;exitDy=0;strokeColor=#FFFFFF;fontColor=#FFFFFF;" parent="WIyWlLk6GJQsqaUBKTNV-1" source="WIyWlLk6GJQsqaUBKTNV-6" target="_2sTWK_pXGh3vERjUtaS-4" edge="1">
          <mxGeometry relative="1" as="geometry">
            <Array as="points">
              <mxPoint x="338" y="589" />
            </Array>
          </mxGeometry>
        </mxCell>
        <mxCell id="WIyWlLk6GJQsqaUBKTNV-6" value="&lt;font style=&quot;font-size: 16px;&quot;&gt;Authentifié?&lt;/font&gt;" style="rhombus;whiteSpace=wrap;html=1;shadow=0;fontFamily=Helvetica;fontSize=12;align=center;strokeWidth=1;spacing=6;spacingTop=-4;strokeColor=#FFFFFF;fontColor=#FFFFFF;fillColor=#000000;rounded=1;" parent="WIyWlLk6GJQsqaUBKTNV-1" vertex="1">
          <mxGeometry x="210" y="397" width="128" height="106" as="geometry" />
        </mxCell>
        <mxCell id="_2sTWK_pXGh3vERjUtaS-17" style="edgeStyle=none;curved=1;rounded=1;orthogonalLoop=1;jettySize=auto;html=1;entryX=0.5;entryY=1;entryDx=0;entryDy=0;fontSize=12;startSize=8;endSize=8;strokeColor=#FFFFFF;fontColor=#FFFFFF;" parent="WIyWlLk6GJQsqaUBKTNV-1" source="_2sTWK_pXGh3vERjUtaS-3" target="_2sTWK_pXGh3vERjUtaS-16" edge="1">
          <mxGeometry relative="1" as="geometry" />
        </mxCell>
        <mxCell id="G8YQuwZDuD0jKXOvKWER-7" value="" style="edgeStyle=none;curved=1;rounded=0;orthogonalLoop=1;jettySize=auto;html=1;fontSize=12;startSize=8;endSize=8;strokeColor=#FFFFFF;entryX=0;entryY=0.5;entryDx=0;entryDy=0;exitX=1;exitY=0.5;exitDx=0;exitDy=0;" parent="WIyWlLk6GJQsqaUBKTNV-1" source="_2sTWK_pXGh3vERjUtaS-3" target="G8YQuwZDuD0jKXOvKWER-8" edge="1">
          <mxGeometry relative="1" as="geometry">
            <mxPoint x="525.9974021685883" y="281.76088846386233" as="sourcePoint" />
          </mxGeometry>
        </mxCell>
        <mxCell id="_2sTWK_pXGh3vERjUtaS-3" value="&lt;font style=&quot;font-size: 19px;&quot;&gt;Oui&lt;/font&gt;" style="ellipse;whiteSpace=wrap;html=1;strokeColor=#FFFFFF;fontColor=#FFFFFF;fillColor=#000000;rounded=1;" parent="WIyWlLk6GJQsqaUBKTNV-1" vertex="1">
          <mxGeometry x="370" y="239" width="120" height="80" as="geometry" />
        </mxCell>
        <mxCell id="G8YQuwZDuD0jKXOvKWER-4" value="" style="edgeStyle=none;curved=1;rounded=0;orthogonalLoop=1;jettySize=auto;html=1;fontSize=12;startSize=8;endSize=8;strokeColor=#FFFFFF;" parent="WIyWlLk6GJQsqaUBKTNV-1" source="_2sTWK_pXGh3vERjUtaS-4" target="_2sTWK_pXGh3vERjUtaS-11" edge="1">
          <mxGeometry relative="1" as="geometry" />
        </mxCell>
        <mxCell id="_2sTWK_pXGh3vERjUtaS-4" value="&lt;font style=&quot;font-size: 19px;&quot;&gt;Non&lt;/font&gt;" style="ellipse;whiteSpace=wrap;html=1;strokeColor=#FFFFFF;fillColor=#000000;fontColor=#FFFFFF;rounded=1;" parent="WIyWlLk6GJQsqaUBKTNV-1" vertex="1">
          <mxGeometry x="370" y="549" width="120" height="80" as="geometry" />
        </mxCell>
        <mxCell id="_2sTWK_pXGh3vERjUtaS-30" style="edgeStyle=none;curved=1;rounded=1;orthogonalLoop=1;jettySize=auto;html=1;entryX=1;entryY=0.5;entryDx=0;entryDy=0;fontSize=12;startSize=8;endSize=8;strokeColor=#FFFFFF;fontColor=#FFFFFF;" parent="WIyWlLk6GJQsqaUBKTNV-1" source="_2sTWK_pXGh3vERjUtaS-11" target="_2sTWK_pXGh3vERjUtaS-29" edge="1">
          <mxGeometry relative="1" as="geometry" />
        </mxCell>
        <mxCell id="_2sTWK_pXGh3vERjUtaS-11" value="&lt;font style=&quot;font-size: 16px;&quot;&gt;Page d&#39;inscription&lt;/font&gt;" style="rounded=1;whiteSpace=wrap;html=1;fontSize=12;glass=0;strokeWidth=1;shadow=0;strokeColor=#FFFFFF;fontColor=#FFFFFF;fillColor=#000000;" parent="WIyWlLk6GJQsqaUBKTNV-1" vertex="1">
          <mxGeometry x="370" y="712" width="120" height="40" as="geometry" />
        </mxCell>
        <mxCell id="_2sTWK_pXGh3vERjUtaS-24" value="" style="edgeStyle=none;curved=0;rounded=1;orthogonalLoop=1;jettySize=auto;html=1;fontSize=12;startSize=8;endSize=8;strokeColor=#FFFFFF;fontColor=#FFFFFF;exitX=1;exitY=0.5;exitDx=0;exitDy=0;entryX=0;entryY=0.5;entryDx=0;entryDy=0;" parent="WIyWlLk6GJQsqaUBKTNV-1" source="G8YQuwZDuD0jKXOvKWER-8" target="_2sTWK_pXGh3vERjUtaS-20" edge="1">
          <mxGeometry relative="1" as="geometry">
            <Array as="points">
              <mxPoint x="738" y="278" />
              <mxPoint x="738" y="377" />
            </Array>
            <mxPoint x="714" y="287" as="sourcePoint" />
          </mxGeometry>
        </mxCell>
        <mxCell id="_2sTWK_pXGh3vERjUtaS-26" style="edgeStyle=none;curved=0;rounded=1;orthogonalLoop=1;jettySize=auto;html=1;exitX=1;exitY=0.5;exitDx=0;exitDy=0;entryX=0;entryY=0.5;entryDx=0;entryDy=0;fontSize=12;startSize=8;endSize=8;strokeColor=#FFFFFF;fontColor=#FFFFFF;" parent="WIyWlLk6GJQsqaUBKTNV-1" target="_2sTWK_pXGh3vERjUtaS-18" edge="1">
          <mxGeometry relative="1" as="geometry">
            <Array as="points">
              <mxPoint x="739.58" y="276.75" />
              <mxPoint x="739" y="174.75" />
            </Array>
            <mxPoint x="723" y="277.25" as="sourcePoint" />
            <mxPoint x="795.58" y="173" as="targetPoint" />
          </mxGeometry>
        </mxCell>
        <mxCell id="_2sTWK_pXGh3vERjUtaS-27" style="edgeStyle=none;curved=0;rounded=1;orthogonalLoop=1;jettySize=auto;html=1;exitX=1;exitY=0.5;exitDx=0;exitDy=0;entryX=0;entryY=0.5;entryDx=0;entryDy=0;fontSize=12;startSize=8;endSize=8;strokeColor=#FFFFFF;fontColor=#FFFFFF;" parent="WIyWlLk6GJQsqaUBKTNV-1" source="G8YQuwZDuD0jKXOvKWER-8" target="_2sTWK_pXGh3vERjUtaS-21" edge="1">
          <mxGeometry relative="1" as="geometry">
            <Array as="points">
              <mxPoint x="730" y="276" />
              <mxPoint x="738" y="281" />
              <mxPoint x="739" y="435" />
            </Array>
          </mxGeometry>
        </mxCell>
        <mxCell id="G8YQuwZDuD0jKXOvKWER-9" style="edgeStyle=none;curved=1;rounded=0;orthogonalLoop=1;jettySize=auto;html=1;fontSize=12;startSize=8;endSize=8;" parent="WIyWlLk6GJQsqaUBKTNV-1" edge="1">
          <mxGeometry relative="1" as="geometry">
            <mxPoint x="741.0689655172414" y="278.8620689655173" as="targetPoint" />
            <mxPoint x="741" y="279" as="sourcePoint" />
          </mxGeometry>
        </mxCell>
        <mxCell id="G8YQuwZDuD0jKXOvKWER-6" style="edgeStyle=none;curved=0;rounded=0;orthogonalLoop=1;jettySize=auto;html=1;exitX=0;exitY=0.5;exitDx=0;exitDy=0;entryX=0.5;entryY=0;entryDx=0;entryDy=0;fontSize=12;startSize=8;endSize=8;strokeColor=#FFFFFF;" parent="WIyWlLk6GJQsqaUBKTNV-1" source="_2sTWK_pXGh3vERjUtaS-16" target="G8YQuwZDuD0jKXOvKWER-0" edge="1">
          <mxGeometry relative="1" as="geometry">
            <Array as="points">
              <mxPoint x="97" y="170" />
            </Array>
          </mxGeometry>
        </mxCell>
        <mxCell id="_2sTWK_pXGh3vERjUtaS-16" value="&lt;font style=&quot;font-size: 16px;&quot;&gt;Déconnexion&lt;/font&gt;" style="rounded=1;whiteSpace=wrap;html=1;fontSize=12;glass=0;strokeWidth=1;shadow=0;strokeColor=#FFFFFF;fontColor=#FFFFFF;fillColor=#000000;" parent="WIyWlLk6GJQsqaUBKTNV-1" vertex="1">
          <mxGeometry x="370" y="149" width="120" height="40" as="geometry" />
        </mxCell>
        <mxCell id="f8_z0c-3X6uvywCsRzQM-3" value="" style="edgeStyle=none;curved=1;rounded=0;orthogonalLoop=1;jettySize=auto;html=1;fontSize=12;startSize=8;endSize=8;" edge="1" parent="WIyWlLk6GJQsqaUBKTNV-1" source="_2sTWK_pXGh3vERjUtaS-18" target="_2sTWK_pXGh3vERjUtaS-15">
          <mxGeometry relative="1" as="geometry" />
        </mxCell>
        <mxCell id="_2sTWK_pXGh3vERjUtaS-18" value="&lt;font style=&quot;font-size: 16px;&quot;&gt;Page avec les graphiques&lt;/font&gt;" style="rounded=1;whiteSpace=wrap;html=1;fontSize=12;glass=0;strokeWidth=1;shadow=0;strokeColor=#FFFFFF;fontColor=#FFFFFF;fillColor=#000000;" parent="WIyWlLk6GJQsqaUBKTNV-1" vertex="1">
          <mxGeometry x="783.5" y="143" width="139" height="60.5" as="geometry" />
        </mxCell>
        <mxCell id="rAkJeghWoEQKGI4IrtJo-5" value="" style="edgeStyle=none;curved=1;rounded=1;orthogonalLoop=1;jettySize=auto;html=1;fontSize=12;startSize=8;endSize=8;strokeColor=#FFFFFF;" parent="WIyWlLk6GJQsqaUBKTNV-1" source="_2sTWK_pXGh3vERjUtaS-19" target="rAkJeghWoEQKGI4IrtJo-1" edge="1">
          <mxGeometry relative="1" as="geometry" />
        </mxCell>
        <mxCell id="_2sTWK_pXGh3vERjUtaS-19" value="&lt;font style=&quot;font-size: 16px;&quot;&gt;Page d&#39;informations d&#39;entretiens et des suivis&lt;/font&gt;" style="rounded=1;whiteSpace=wrap;html=1;fontSize=12;glass=0;strokeWidth=1;shadow=0;strokeColor=#FFFFFF;fontColor=#FFFFFF;fillColor=#000000;" parent="WIyWlLk6GJQsqaUBKTNV-1" vertex="1">
          <mxGeometry x="783.5" y="214.32" width="153" height="113.25" as="geometry" />
        </mxCell>
        <mxCell id="_2sTWK_pXGh3vERjUtaS-20" value="&lt;font style=&quot;font-size: 16px;&quot;&gt;Page de modification du profil d&#39;utilisateur&lt;/font&gt;" style="rounded=1;whiteSpace=wrap;html=1;fontSize=12;glass=0;strokeWidth=1;shadow=0;strokeColor=#FFFFFF;fontColor=#FFFFFF;fillColor=#000000;" parent="WIyWlLk6GJQsqaUBKTNV-1" vertex="1">
          <mxGeometry x="783.5" y="352" width="193" height="50.5" as="geometry" />
        </mxCell>
        <mxCell id="_2sTWK_pXGh3vERjUtaS-21" value="&lt;font style=&quot;font-size: 16px;&quot;&gt;Page à propos&lt;/font&gt;" style="rounded=1;whiteSpace=wrap;html=1;fontSize=12;glass=0;strokeWidth=1;shadow=0;strokeColor=#FFFFFF;fontColor=#FFFFFF;gradientColor=none;fillColor=#000000;" parent="WIyWlLk6GJQsqaUBKTNV-1" vertex="1">
          <mxGeometry x="783.5" y="414" width="136" height="45.5" as="geometry" />
        </mxCell>
        <mxCell id="G8YQuwZDuD0jKXOvKWER-5" style="edgeStyle=none;curved=0;rounded=0;orthogonalLoop=1;jettySize=auto;html=1;exitX=0.5;exitY=0;exitDx=0;exitDy=0;entryX=0.5;entryY=1;entryDx=0;entryDy=0;fontSize=12;startSize=8;endSize=8;strokeColor=#FFFFFF;" parent="WIyWlLk6GJQsqaUBKTNV-1" source="_2sTWK_pXGh3vERjUtaS-29" target="G8YQuwZDuD0jKXOvKWER-0" edge="1">
          <mxGeometry relative="1" as="geometry">
            <Array as="points">
              <mxPoint x="101" y="699" />
            </Array>
          </mxGeometry>
        </mxCell>
        <mxCell id="_2sTWK_pXGh3vERjUtaS-29" value="&lt;font style=&quot;font-size: 16px;&quot;&gt;Page de confirmation d&#39;inscription&lt;/font&gt;" style="rounded=1;whiteSpace=wrap;html=1;fontSize=12;glass=0;strokeWidth=1;shadow=0;strokeColor=#FFFFFF;fontColor=#FFFFFF;fillColor=#000000;" parent="WIyWlLk6GJQsqaUBKTNV-1" vertex="1">
          <mxGeometry x="22" y="699" width="158" height="66" as="geometry" />
        </mxCell>
        <mxCell id="rAkJeghWoEQKGI4IrtJo-0" style="edgeStyle=none;curved=1;rounded=1;orthogonalLoop=1;jettySize=auto;html=1;exitX=1;exitY=0.25;exitDx=0;exitDy=0;fontSize=12;startSize=8;endSize=8;" parent="WIyWlLk6GJQsqaUBKTNV-1" source="_2sTWK_pXGh3vERjUtaS-19" target="_2sTWK_pXGh3vERjUtaS-19" edge="1">
          <mxGeometry relative="1" as="geometry" />
        </mxCell>
        <mxCell id="f8_z0c-3X6uvywCsRzQM-15" value="" style="edgeStyle=none;curved=1;rounded=0;orthogonalLoop=1;jettySize=auto;html=1;fontSize=12;startSize=8;endSize=8;" edge="1" parent="WIyWlLk6GJQsqaUBKTNV-1" source="rAkJeghWoEQKGI4IrtJo-1">
          <mxGeometry relative="1" as="geometry">
            <mxPoint x="1049.5" y="177.5" as="targetPoint" />
          </mxGeometry>
        </mxCell>
        <mxCell id="f8_z0c-3X6uvywCsRzQM-16" style="edgeStyle=none;curved=1;rounded=0;orthogonalLoop=1;jettySize=auto;html=1;exitX=0.5;exitY=0;exitDx=0;exitDy=0;entryX=0.5;entryY=1;entryDx=0;entryDy=0;fontSize=12;startSize=8;endSize=8;strokeColor=#FFFFFF;" edge="1" parent="WIyWlLk6GJQsqaUBKTNV-1" source="rAkJeghWoEQKGI4IrtJo-1">
          <mxGeometry relative="1" as="geometry">
            <mxPoint x="1049.5" y="177.5" as="targetPoint" />
          </mxGeometry>
        </mxCell>
        <mxCell id="rAkJeghWoEQKGI4IrtJo-1" value="&lt;font style=&quot;font-size: 16px;&quot;&gt;Page d&#39;informations sur l&#39;entretien et de ses suivis&lt;/font&gt;" style="rounded=1;whiteSpace=wrap;html=1;fontSize=12;glass=0;strokeWidth=1;shadow=0;strokeColor=#FFFFFF;fontColor=#FFFFFF;fillColor=#000000;" parent="WIyWlLk6GJQsqaUBKTNV-1" vertex="1">
          <mxGeometry x="972" y="211.45" width="155" height="116.12" as="geometry" />
        </mxCell>
        <mxCell id="G8YQuwZDuD0jKXOvKWER-0" value="&lt;font style=&quot;font-size: 16px;&quot;&gt;Page de connexion&lt;/font&gt;" style="rounded=1;whiteSpace=wrap;html=1;fontSize=12;glass=0;strokeWidth=1;shadow=0;strokeColor=#FFFFFF;fontColor=#FFFFFF;fillColor=#000000;" parent="WIyWlLk6GJQsqaUBKTNV-1" vertex="1">
          <mxGeometry x="28" y="428" width="140" height="58" as="geometry" />
        </mxCell>
        <mxCell id="G8YQuwZDuD0jKXOvKWER-8" value="Navigation" style="swimlane;whiteSpace=wrap;html=1;fillColor=default;strokeColor=#FFFFFF;" parent="WIyWlLk6GJQsqaUBKTNV-1" vertex="1">
          <mxGeometry x="518" y="177.5" width="200" height="200" as="geometry" />
        </mxCell>
        <mxCell id="_2sTWK_pXGh3vERjUtaS-15" value="&lt;font style=&quot;font-size: 16px;&quot;&gt;Dashboard&lt;/font&gt;&lt;div&gt;&lt;font style=&quot;font-size: 16px;&quot;&gt;(Graphiques, Entretiens)&lt;/font&gt;&lt;/div&gt;" style="rounded=1;whiteSpace=wrap;html=1;fontSize=12;glass=0;strokeWidth=1;shadow=0;strokeColor=#FFFFFF;fontColor=#FFFFFF;fillColor=#000000;" parent="G8YQuwZDuD0jKXOvKWER-8" vertex="1">
          <mxGeometry x="35" y="33" width="130" height="153" as="geometry" />
        </mxCell>
        <mxCell id="f8_z0c-3X6uvywCsRzQM-2" style="edgeStyle=none;curved=0;rounded=1;orthogonalLoop=1;jettySize=auto;html=1;exitX=1;exitY=0.5;exitDx=0;exitDy=0;entryX=-0.003;entryY=0.549;entryDx=0;entryDy=0;fontSize=12;startSize=8;endSize=8;strokeColor=#FFFFFF;fontColor=#FFFFFF;entryPerimeter=0;" edge="1" parent="WIyWlLk6GJQsqaUBKTNV-1" target="_2sTWK_pXGh3vERjUtaS-19">
          <mxGeometry relative="1" as="geometry">
            <Array as="points">
              <mxPoint x="734.58" y="276.75" />
            </Array>
            <mxPoint x="718" y="277.25" as="sourcePoint" />
            <mxPoint x="790.58" y="173" as="targetPoint" />
          </mxGeometry>
        </mxCell>
        <mxCell id="f8_z0c-3X6uvywCsRzQM-4" value="" style="edgeStyle=none;curved=0;rounded=1;orthogonalLoop=1;jettySize=auto;html=1;fontSize=12;startSize=8;endSize=8;strokeColor=#FFFFFF;fontColor=#FFFFFF;exitX=1;exitY=0.5;exitDx=0;exitDy=0;entryX=0.503;entryY=0.043;entryDx=0;entryDy=0;entryPerimeter=0;" edge="1" parent="WIyWlLk6GJQsqaUBKTNV-1" target="f8_z0c-3X6uvywCsRzQM-8" source="G8YQuwZDuD0jKXOvKWER-8">
          <mxGeometry relative="1" as="geometry">
            <Array as="points">
              <mxPoint x="738" y="278" />
            </Array>
            <mxPoint x="712.0000000000002" y="239.5" as="sourcePoint" />
            <mxPoint x="739" y="526" as="targetPoint" />
          </mxGeometry>
        </mxCell>
        <mxCell id="f8_z0c-3X6uvywCsRzQM-7" style="edgeStyle=none;curved=1;rounded=0;orthogonalLoop=1;jettySize=auto;html=1;exitX=0.5;exitY=1;exitDx=0;exitDy=0;entryX=0.5;entryY=0;entryDx=0;entryDy=0;fontSize=12;startSize=8;endSize=8;strokeColor=#FFFFFF;" edge="1" parent="WIyWlLk6GJQsqaUBKTNV-1" source="f8_z0c-3X6uvywCsRzQM-5" target="f8_z0c-3X6uvywCsRzQM-6">
          <mxGeometry relative="1" as="geometry" />
        </mxCell>
        <mxCell id="f8_z0c-3X6uvywCsRzQM-5" value="&lt;font style=&quot;font-size: 16px;&quot;&gt;Page de liste d&#39;utilisateurs&lt;br&gt;(admin)&lt;/font&gt;" style="rounded=1;whiteSpace=wrap;html=1;fontSize=12;glass=0;strokeWidth=1;shadow=0;strokeColor=#FFFFFF;fontColor=#FFFFFF;fillColor=#000000;" vertex="1" parent="WIyWlLk6GJQsqaUBKTNV-1">
          <mxGeometry x="996" y="622" width="133" height="72" as="geometry" />
        </mxCell>
        <mxCell id="f8_z0c-3X6uvywCsRzQM-6" value="&lt;font style=&quot;font-size: 16px;&quot;&gt;Pop-up de modification d&#39;utilisateur&lt;br&gt;(admin)&lt;/font&gt;" style="rounded=1;whiteSpace=wrap;html=1;fontSize=12;glass=0;strokeWidth=1;shadow=0;strokeColor=#FFFFFF;fontColor=#FFFFFF;fillColor=#000000;" vertex="1" parent="WIyWlLk6GJQsqaUBKTNV-1">
          <mxGeometry x="984" y="712" width="157" height="92" as="geometry" />
        </mxCell>
        <mxCell id="f8_z0c-3X6uvywCsRzQM-13" style="edgeStyle=none;curved=1;rounded=0;orthogonalLoop=1;jettySize=auto;html=1;entryX=0.5;entryY=0;entryDx=0;entryDy=0;fontSize=12;startSize=8;endSize=8;strokeColor=#FFFFFF;exitX=0.97;exitY=0.493;exitDx=0;exitDy=0;exitPerimeter=0;" edge="1" parent="WIyWlLk6GJQsqaUBKTNV-1" source="f8_z0c-3X6uvywCsRzQM-8" target="f8_z0c-3X6uvywCsRzQM-11">
          <mxGeometry relative="1" as="geometry">
            <Array as="points">
              <mxPoint x="838" y="538" />
              <mxPoint x="874" y="540" />
            </Array>
          </mxGeometry>
        </mxCell>
        <mxCell id="f8_z0c-3X6uvywCsRzQM-8" value="&lt;font style=&quot;font-size: 16px;&quot;&gt;Admin&lt;/font&gt;" style="rhombus;whiteSpace=wrap;html=1;shadow=0;fontFamily=Helvetica;fontSize=12;align=center;strokeWidth=1;spacing=6;spacingTop=-4;strokeColor=#FFFFFF;fontColor=#FFFFFF;fillColor=#000000;rounded=1;" vertex="1" parent="WIyWlLk6GJQsqaUBKTNV-1">
          <mxGeometry x="674" y="486" width="128" height="106" as="geometry" />
        </mxCell>
        <mxCell id="f8_z0c-3X6uvywCsRzQM-9" style="edgeStyle=none;curved=1;rounded=0;orthogonalLoop=1;jettySize=auto;html=1;exitX=0.976;exitY=0.492;exitDx=0;exitDy=0;entryX=0.5;entryY=0;entryDx=0;entryDy=0;fontSize=12;startSize=8;endSize=8;strokeColor=#FFFFFF;exitPerimeter=0;" edge="1" parent="WIyWlLk6GJQsqaUBKTNV-1" source="f8_z0c-3X6uvywCsRzQM-8" target="f8_z0c-3X6uvywCsRzQM-5">
          <mxGeometry relative="1" as="geometry">
            <Array as="points">
              <mxPoint x="1008" y="541" />
              <mxPoint x="1062" y="542" />
            </Array>
          </mxGeometry>
        </mxCell>
        <mxCell id="f8_z0c-3X6uvywCsRzQM-10" style="edgeStyle=none;curved=1;rounded=0;orthogonalLoop=1;jettySize=auto;html=1;exitX=0.5;exitY=1;exitDx=0;exitDy=0;entryX=0.5;entryY=0;entryDx=0;entryDy=0;fontSize=12;startSize=8;endSize=8;strokeColor=#FFFFFF;" edge="1" parent="WIyWlLk6GJQsqaUBKTNV-1" source="f8_z0c-3X6uvywCsRzQM-11" target="f8_z0c-3X6uvywCsRzQM-12">
          <mxGeometry relative="1" as="geometry" />
        </mxCell>
        <mxCell id="f8_z0c-3X6uvywCsRzQM-11" value="&lt;font style=&quot;font-size: 16px;&quot;&gt;Page de liste de types d&#39;entretiens&lt;br&gt;(admin)&lt;/font&gt;" style="rounded=1;whiteSpace=wrap;html=1;fontSize=12;glass=0;strokeWidth=1;shadow=0;strokeColor=#FFFFFF;fontColor=#FFFFFF;fillColor=#000000;" vertex="1" parent="WIyWlLk6GJQsqaUBKTNV-1">
          <mxGeometry x="803.5" y="622" width="133" height="72" as="geometry" />
        </mxCell>
        <mxCell id="f8_z0c-3X6uvywCsRzQM-12" value="&lt;span style=&quot;font-size: 16px;&quot;&gt;Pop-up pour renommer le nom du type&lt;/span&gt;" style="rounded=1;whiteSpace=wrap;html=1;fontSize=12;glass=0;strokeWidth=1;shadow=0;strokeColor=#FFFFFF;fontColor=#FFFFFF;fillColor=#000000;" vertex="1" parent="WIyWlLk6GJQsqaUBKTNV-1">
          <mxGeometry x="791.5" y="712" width="157" height="92" as="geometry" />
        </mxCell>
        <mxCell id="f8_z0c-3X6uvywCsRzQM-17" value="&lt;font style=&quot;font-size: 16px;&quot;&gt;Pop-up de modification de l&#39;entretien ou d&#39;un de ses suivis&lt;/font&gt;" style="rounded=1;whiteSpace=wrap;html=1;fontSize=12;glass=0;strokeWidth=1;shadow=0;strokeColor=#FFFFFF;fontColor=#FFFFFF;fillColor=#000000;" vertex="1" parent="WIyWlLk6GJQsqaUBKTNV-1">
          <mxGeometry x="974" y="61.379999999999995" width="155" height="116.12" as="geometry" />
        </mxCell>
      </root>
    </mxGraphModel>
  </diagram>
</mxfile>
